<?xml version="1.0" encoding="UTF-8"?>
<svg
  width="1920"
  height="1080"
  viewBox="0 0 1920 1080"
  xmlns="http://www.w3.org/2000/svg">

  <defs>
    <!-- градиент неоновой "трубы" -->
    <linearGradient id="neonTube" x1="0%" y1="0%" x2="100%" y2="0%">
      <stop offset="0%"   stop-color="#ff2440" stop-opacity="1"/>
      <stop offset="40%"  stop-color="#ff3048" stop-opacity="1"/>
      <stop offset="80%"  stop-color="#ff9aaa" stop-opacity="0.95"/>
      <stop offset="100%" stop-color="#ffe4ea" stop-opacity="0.9"/>
    </linearGradient>

    <!-- мягкий неоновый glow вокруг линий -->
    <filter id="neonGlow" x="-30%" y="-30%" width="160%" height="160%">
      <feGaussianBlur in="SourceGraphic" stdDeviation="5" result="blur" />
      <feColorMatrix
        in="blur"
        type="matrix"
        values="
          1 0 0 0 0
          0 1 0 0 0
          0 0 1 0 0
          0 0 0 1.25 0"
        result="glow"
      />
      <feMerge>
        <feMergeNode in="glow" />
        <feMergeNode in="SourceGraphic" />
      </feMerge>
    </filter>

    <!-- красный "пузырь" в центре -->
    <radialGradient id="centerGlow" cx="50%" cy="45%" r="55%">
      <stop offset="0%"   stop-color="#ff1f3b" stop-opacity="0.30"/>
      <stop offset="40%"  stop-color="#ff1f3b" stop-opacity="0.16"/>
      <stop offset="100%" stop-color="#000000" stop-opacity="0"/>
    </radialGradient>
  </defs>

  <!-- общий центральный glow -->
  <rect width="1920" height="1080" fill="url(#centerGlow)" />

  <!-- ===== ВЕРХНИЕ ЛИНИИ (тоньше) ===== -->
  <g fill="none" stroke="url(#neonTube)" stroke-width="7" stroke-linecap="round" filter="url(#neonGlow)">
    <path d="M-260,120 C420,40 980,80 1520,120 S2300,260 2140,380" />
    <path d="M-180,220 C440,130 1000,160 1540,200 S2340,320 2140,440" />
    <!-- дополнительная линия справа сверху, чуть выше и с дугой -->
    <path d="M400,60 C900,10 1380,40 1700,120 1850,160 1990,230 2140,320" />
  </g>

  <!-- ===== НИЖНИЙ ПУЧОК / ПЕТЛИ (тоже тоньше) ===== -->
  <g fill="none" stroke="url(#neonTube)" stroke-width="8" stroke-linecap="round" filter="url(#neonGlow)">
    <!-- длинные нижние дуги -->
    <path d="M-200,780 C200,640 420,560 720,540 S1200,580 1500,460 2100,200 2200,-40" />
    <path d="M-160,840 C220,680 460,600 760,580 S1220,620 1540,500 2140,240 2240,0" />
    <path d="M-120,900 C260,720 520,650 820,630 S1260,670 1600,540 2180,280 2280,40" />

    <!-- более изогнутые центральные линии -->
    <path d="M200,1080 C360,880 520,780 720,760 920,740 1020,720 1100,640 1200,540 1220,440 1300,380 1400,300 1560,280 1740,320" />
    <path d="M120,1080 C320,880 500,800 700,780 900,760 1040,720 1150,620 1260,520 1300,420 1420,360 1560,300 1700,310 1860,360" />
  </g>

  <!-- лёгкие точки-гличи -->
  <g fill="#ffe4ea" fill-opacity="0.85">
    <circle cx="360" cy="260" r="2"/>
    <circle cx="860" cy="190" r="2"/>
    <circle cx="1350" cy="230" r="2.1"/>
    <circle cx="1680" cy="320" r="2.1"/>

    <circle cx="420" cy="780" r="2.2"/>
    <circle cx="980" cy="860" r="2.1"/>
    <circle cx="1420" cy="810" r="2.2"/>
  </g>
</svg>